# xmcd
#
# Track frame offsets: 
#        150
#        19716
#        40482
#        57132
#        73828
#        90364
#        106878
#        123273
#        143080
#        162819
#        185042
#        207991
#        229250
#        250039
#        270593
#
# Disc length: 3831 seconds
#
# Revision: 4
# Processed by: cddbd v1.5.2PL0 Copyright (c) Steve Scherf et al.
# Submitted via: ExactAudioCopyFreeDBPlugin 1.0
#
DISCID=cc0ef50f
DTITLE=Hayley Westenra - Hayley Westenra_ODYSSEY
DYEAR=2005
DGENRE=W-song
TTITLE0=Prayer
TTITLE1=Never Saw Blue
TTITLE2=Dell' Amore Non Si Sa
TTITLE3=Ave Maria(Caccini)
TTITLE4=Both Sides Now
TTITLE5=What You Never Know(Won't Hurt You)
TTITLE6=May It Be
TTITLE7=Quanta Qualia
TTITLE8=Bachianas Brasileiras No.5 Aria(Cantilena)
TTITLE9=She Moves through the Fair
TTITLE10=Say Grace
TTITLE11=My Heart Belongs to You
TTITLE12=Bridal Ballad
TTITLE13=The Mummers' Dance
TTITLE14=Wiegenlied
EXTD=YEAR: 2005 ID3G: 13
EXTT0=
EXTT1=
EXTT2=
EXTT3=
EXTT4=
EXTT5=
EXTT6=
EXTT7=
EXTT8=
EXTT9=
EXTT10=
EXTT11=
EXTT12=
EXTT13=
EXTT14=
PLAYORDER=
